<svg width="34" height="34" viewBox="0 0 34 34" fill="none" xmlns="http://www.w3.org/2000/svg">
<path d="M17 0C7.61159 0 0 7.61159 0 17C0 26.3884 7.61159 34 17 34C26.3884 34 34 26.3884 34 17C34 7.61159 26.3884 0 17 0ZM24.8462 19.6154H17C16.6532 19.6154 16.3206 19.4776 16.0753 19.2324C15.8301 18.9871 15.6923 18.6545 15.6923 18.3077V6.53846C15.6923 6.19164 15.8301 5.85902 16.0753 5.61378C16.3206 5.36854 16.6532 5.23077 17 5.23077C17.3468 5.23077 17.6794 5.36854 17.9247 5.61378C18.1699 5.85902 18.3077 6.19164 18.3077 6.53846V17H24.8462C25.193 17 25.5256 17.1378 25.7708 17.383C26.0161 17.6283 26.1538 17.9609 26.1538 18.3077C26.1538 18.6545 26.0161 18.9871 25.7708 19.2324C25.5256 19.4776 25.193 19.6154 24.8462 19.6154Z" fill="#F08844"/>
</svg>
