<svg width="34" height="34" viewBox="0 0 34 34" fill="none" xmlns="http://www.w3.org/2000/svg">
<path d="M18.0625 2.76842V12.4843C18.0625 12.5548 18.0905 12.6223 18.1403 12.6721C18.1901 12.722 18.2577 12.7499 18.3281 12.7499H28.044C28.0703 12.75 28.0959 12.7422 28.1178 12.7277C28.1396 12.7131 28.1566 12.6924 28.1667 12.6682C28.1768 12.644 28.1795 12.6173 28.1745 12.5915C28.1694 12.5658 28.1568 12.5421 28.1383 12.5235L18.2889 2.67412C18.2703 2.65562 18.2467 2.64304 18.2209 2.63799C18.1952 2.63293 18.1685 2.63562 18.1443 2.6457C18.12 2.65579 18.0993 2.67283 18.0848 2.69467C18.0702 2.71651 18.0625 2.74217 18.0625 2.76842Z" fill="#F08844"/>
<path d="M16.4688 14.875C16.3279 14.875 16.1927 14.819 16.0931 14.7194C15.9935 14.6198 15.9375 14.4846 15.9375 14.3438V2.125H6.10938C5.89803 2.125 5.69534 2.20896 5.5459 2.3584C5.39646 2.50784 5.3125 2.71053 5.3125 2.92188V31.0781C5.3125 31.2895 5.39646 31.4922 5.5459 31.6416C5.69534 31.791 5.89803 31.875 6.10938 31.875H27.8906C28.102 31.875 28.3047 31.791 28.4541 31.6416C28.6035 31.4922 28.6875 31.2895 28.6875 31.0781V14.875H16.4688ZM23.375 25.5H10.625V23.375H23.375V25.5ZM23.375 20.1875H10.625V18.0625H23.375V20.1875Z" fill="#F08844"/>
</svg>
