<svg width="35" height="35" viewBox="0 0 35 35" fill="none" xmlns="http://www.w3.org/2000/svg">
    <path d="M31.4412 3.64016C31.3413 3.5304 31.2202 3.44203 31.0852 3.3804C30.9502 3.31877 30.8041 3.28515 30.6557 3.28157C30.5074 3.27799 30.3598 3.30453 30.222 3.35958C30.0842 3.41464 29.959 3.49706 29.8539 3.60188L29.0083 4.44338C28.9058 4.54593 28.8482 4.68497 28.8482 4.82995C28.8482 4.97493 28.9058 5.11398 29.0083 5.21652L29.7835 5.99035C29.8343 6.0414 29.8947 6.08191 29.9612 6.10956C30.0277 6.1372 30.0991 6.15143 30.1711 6.15143C30.2431 6.15143 30.3144 6.1372 30.381 6.10956C30.4475 6.08191 30.5079 6.0414 30.5587 5.99035L31.3831 5.17004C31.8001 4.75373 31.8391 4.07561 31.4412 3.64016ZM27.2986 6.15236L14.9584 18.4707C14.8836 18.5452 14.8292 18.6378 14.8005 18.7394L14.2297 20.4395C14.216 20.4856 14.215 20.5346 14.2269 20.5812C14.2387 20.6278 14.2629 20.6704 14.2969 20.7044C14.331 20.7385 14.3735 20.7627 14.4202 20.7745C14.4668 20.7863 14.5158 20.7854 14.5619 20.7717L16.2606 20.2009C16.3623 20.1722 16.4548 20.1178 16.5293 20.043L28.8476 7.70139C28.9616 7.5862 29.0255 7.43071 29.0255 7.26867C29.0255 7.10664 28.9616 6.95114 28.8476 6.83596L28.1675 6.15236C28.0521 6.03736 27.8959 5.97278 27.7331 5.97278C27.5702 5.97278 27.414 6.03736 27.2986 6.15236Z" fill="black"/>
    <path d="M26.41 13.2385L18.0776 21.5872C17.7556 21.91 17.3598 22.1496 16.9244 22.2852L15.1539 22.8778C14.7337 22.9965 14.2895 23.001 13.867 22.8908C13.4445 22.7806 13.059 22.5598 12.7503 22.2511C12.4416 21.9423 12.2207 21.5569 12.1106 21.1344C12.0004 20.7119 12.0049 20.2676 12.1235 19.8475L12.7162 18.077C12.8514 17.6417 13.0905 17.2459 13.4128 16.9237L21.7615 8.59004C21.8381 8.5136 21.8902 8.41618 21.9114 8.3101C21.9325 8.20402 21.9217 8.09406 21.8804 7.9941C21.8391 7.89415 21.769 7.8087 21.6791 7.74856C21.5892 7.68843 21.4835 7.6563 21.3753 7.65625H7.10938C6.09409 7.65625 5.12039 8.05957 4.40248 8.77748C3.68457 9.49539 3.28125 10.4691 3.28125 11.4844V27.8906C3.28125 28.9059 3.68457 29.8796 4.40248 30.5975C5.12039 31.3154 6.09409 31.7188 7.10938 31.7188H23.5156C24.5309 31.7188 25.5046 31.3154 26.2225 30.5975C26.9404 29.8796 27.3438 28.9059 27.3438 27.8906V13.6247C27.3437 13.5165 27.3116 13.4108 27.2514 13.3209C27.1913 13.231 27.1059 13.1609 27.0059 13.1196C26.9059 13.0783 26.796 13.0675 26.6899 13.0887C26.5838 13.1098 26.4864 13.1619 26.41 13.2385Z" fill="black"/>
</svg>
