<svg width="24" height="24" viewBox="0 0 35 35" fill="none" xmlns="http://www.w3.org/2000/svg">
<path d="M17.5 21.875C19.9162 21.875 21.875 19.9162 21.875 17.5C21.875 15.0838 19.9162 13.125 17.5 13.125C15.0838 13.125 13.125 15.0838 13.125 17.5C13.125 19.9162 15.0838 21.875 17.5 21.875Z" fill="#F08844"/>
<path d="M33.5535 16.3105C31.7447 13.5133 29.398 11.1371 26.7675 9.43838C23.8574 7.55713 20.6446 6.5625 17.4768 6.5625C14.5701 6.5625 11.712 7.39307 8.98176 9.03096C6.19748 10.701 3.67502 13.1407 1.4841 16.2818C1.23677 16.6368 1.10055 17.0573 1.09276 17.4899C1.08497 17.9225 1.20596 18.3477 1.44035 18.7113C3.24572 21.5366 5.56926 23.9162 8.15871 25.5917C11.0742 27.4805 14.2119 28.4375 17.4768 28.4375C20.6698 28.4375 23.8896 27.4511 26.7873 25.5855C29.4164 23.8923 31.7584 21.5072 33.5604 18.6867C33.7867 18.3315 33.9063 17.9188 33.9051 17.4976C33.9039 17.0764 33.7819 16.6645 33.5535 16.3105ZM17.5 24.0625C16.2021 24.0625 14.9333 23.6776 13.8541 22.9565C12.7749 22.2354 11.9338 21.2105 11.4371 20.0114C10.9404 18.8122 10.8104 17.4927 11.0636 16.2197C11.3168 14.9467 11.9419 13.7774 12.8596 12.8596C13.7774 11.9418 14.9467 11.3168 16.2197 11.0636C17.4927 10.8104 18.8122 10.9403 20.0114 11.437C21.2105 11.9337 22.2354 12.7749 22.9565 13.8541C23.6776 14.9333 24.0625 16.2021 24.0625 17.5C24.0605 19.2399 23.3685 20.9079 22.1382 22.1382C20.9079 23.3685 19.2399 24.0605 17.5 24.0625Z" fill="#F08844"/>
</svg>
