<svg width="24" height="24" viewBox="0 0 35 35" fill="none" xmlns="http://www.w3.org/2000/svg">
<path d="M27.7611 28.875C27.6257 28.8752 27.4915 28.8486 27.3664 28.7967C27.2413 28.7449 27.1277 28.6687 27.0322 28.5727L4.34465 5.88522C4.15942 5.69025 4.05768 5.43063 4.06112 5.16172C4.06456 4.89281 4.17292 4.63589 4.36308 4.44572C4.55324 4.25556 4.81017 4.1472 5.07908 4.14376C5.34799 4.14032 5.60761 4.24206 5.80258 4.42729L28.4901 27.1148C28.6342 27.259 28.7323 27.4427 28.7721 27.6427C28.8119 27.8427 28.7914 28.05 28.7134 28.2383C28.6354 28.4267 28.5033 28.5877 28.3338 28.7011C28.1643 28.8144 27.965 28.8749 27.7611 28.875ZM15.9017 20.3575L12.5637 17.0195C12.5446 17.0005 12.52 16.988 12.4934 16.9838C12.4668 16.9795 12.4395 16.9836 12.4154 16.9957C12.3913 17.0077 12.3716 17.027 12.359 17.0508C12.3464 17.0746 12.3416 17.1017 12.3452 17.1284C12.48 17.9944 12.8866 18.7952 13.5063 19.4149C14.1261 20.0346 14.9268 20.4413 15.7928 20.576C15.8195 20.5797 15.8467 20.5748 15.8705 20.5622C15.8943 20.5497 15.9136 20.5299 15.9256 20.5058C15.9376 20.4817 15.9418 20.4544 15.9375 20.4278C15.9332 20.4012 15.9207 20.3767 15.9017 20.3575ZM16.933 12.6425L20.2762 15.9844C20.2953 16.0036 20.3199 16.0164 20.3466 16.0208C20.3734 16.0252 20.4008 16.0211 20.4251 16.009C20.4493 15.997 20.4692 15.9776 20.4818 15.9536C20.4944 15.9296 20.4991 15.9023 20.4953 15.8755C20.3609 15.0083 19.954 14.2064 19.3335 13.5859C18.7129 12.9653 17.911 12.5584 17.0438 12.424C17.017 12.4198 16.9895 12.4243 16.9653 12.4367C16.9412 12.4491 16.9215 12.4688 16.9092 12.4931C16.8969 12.5173 16.8926 12.5448 16.8969 12.5716C16.9012 12.5985 16.9138 12.6233 16.933 12.6425Z" fill="#F08844"/>
<path d="M31.5638 17.6189C31.7772 17.284 31.89 16.8949 31.8889 16.4978C31.8878 16.1007 31.7727 15.7122 31.5574 15.3785C29.852 12.7411 27.6393 10.5007 25.1591 8.89904C22.4115 7.12529 19.3822 6.1875 16.3967 6.1875C14.8229 6.18966 13.2597 6.44627 11.7677 6.9474C11.7259 6.96129 11.6884 6.98564 11.6588 7.01812C11.6291 7.05061 11.6082 7.09015 11.5981 7.13299C11.588 7.17583 11.5891 7.22053 11.6012 7.26284C11.6133 7.30516 11.636 7.34368 11.6672 7.37473L14.7119 10.4195C14.7436 10.4512 14.7829 10.4741 14.8261 10.486C14.8692 10.4978 14.9148 10.4982 14.9581 10.4872C15.9902 10.2357 17.0696 10.2541 18.0925 10.5407C19.1154 10.8273 20.0472 11.3724 20.7984 12.1235C21.5495 12.8746 22.0946 13.8065 22.3812 14.8294C22.6678 15.8522 22.6862 16.9317 22.4347 17.9637C22.4237 18.007 22.4242 18.0524 22.4361 18.0955C22.448 18.1385 22.4708 18.1777 22.5024 18.2093L26.882 22.5921C26.9275 22.6378 26.9885 22.6647 27.053 22.6675C27.1174 22.6704 27.1806 22.649 27.23 22.6076C28.9158 21.1706 30.3767 19.4891 31.5638 17.6189ZM16.4174 22.6875C15.4807 22.6876 14.5562 22.475 13.7137 22.0657C12.8711 21.6565 12.1325 21.0613 11.5535 20.3251C10.9744 19.5888 10.5701 18.7307 10.371 17.8155C10.1718 16.9002 10.1831 15.9517 10.4039 15.0414C10.4148 14.9981 10.4143 14.9527 10.4025 14.9097C10.3906 14.8667 10.3678 14.8274 10.3362 14.7959L6.02816 10.4859C5.98247 10.4401 5.92128 10.4132 5.8567 10.4105C5.79212 10.4077 5.72886 10.4294 5.67946 10.4711C4.10745 11.8123 2.65017 13.4443 1.31792 15.3514C1.08472 15.6862 0.956287 16.0826 0.948942 16.4905C0.941597 16.8984 1.05567 17.2992 1.27667 17.6421C2.97888 20.306 5.169 22.5496 7.61112 24.1293C10.3626 25.9102 13.3184 26.8125 16.3967 26.8125C17.9865 26.8082 19.5659 26.5571 21.0786 26.0681C21.1207 26.0546 21.1587 26.0305 21.1888 25.9982C21.219 25.9658 21.2403 25.9262 21.2507 25.8832C21.2611 25.8402 21.2603 25.7953 21.2484 25.7527C21.2364 25.7101 21.2137 25.6714 21.1824 25.6401L18.1228 22.5812C18.0912 22.5496 18.052 22.5267 18.0089 22.5149C17.9659 22.503 17.9205 22.5025 17.8772 22.5135C17.3992 22.6293 16.9092 22.6877 16.4174 22.6875Z" fill="#F08844"/>
<path d="M27.7611 28.875C27.6257 28.8752 27.4915 28.8486 27.3664 28.7967C27.2413 28.7449 27.1277 28.6687 27.0322 28.5727L4.34465 5.88522C4.15942 5.69025 4.05768 5.43063 4.06112 5.16172C4.06456 4.89281 4.17292 4.63589 4.36308 4.44572C4.55324 4.25556 4.81017 4.1472 5.07908 4.14376C5.34799 4.14032 5.60761 4.24206 5.80258 4.42729L28.4901 27.1148C28.6342 27.259 28.7323 27.4427 28.7721 27.6427C28.8119 27.8427 28.7914 28.05 28.7134 28.2383C28.6354 28.4267 28.5033 28.5877 28.3338 28.7011C28.1643 28.8144 27.965 28.8749 27.7611 28.875ZM15.9017 20.3575L12.5637 17.0195C12.5446 17.0005 12.52 16.988 12.4934 16.9838C12.4668 16.9795 12.4395 16.9836 12.4154 16.9957C12.3913 17.0077 12.3716 17.027 12.359 17.0508C12.3464 17.0746 12.3416 17.1017 12.3452 17.1284C12.48 17.9944 12.8866 18.7952 13.5063 19.4149C14.1261 20.0346 14.9268 20.4413 15.7928 20.576C15.8195 20.5797 15.8467 20.5748 15.8705 20.5622C15.8943 20.5497 15.9136 20.5299 15.9256 20.5058C15.9376 20.4817 15.9418 20.4544 15.9375 20.4278C15.9332 20.4012 15.9207 20.3767 15.9017 20.3575ZM16.933 12.6425L20.2762 15.9844C20.2953 16.0036 20.3199 16.0164 20.3466 16.0208C20.3734 16.0252 20.4008 16.0211 20.4251 16.009C20.4493 15.997 20.4692 15.9776 20.4818 15.9536C20.4944 15.9296 20.4991 15.9023 20.4953 15.8755C20.3609 15.0083 19.954 14.2064 19.3335 13.5859C18.7129 12.9653 17.911 12.5584 17.0438 12.424C17.017 12.4198 16.9895 12.4243 16.9653 12.4367C16.9412 12.4491 16.9215 12.4688 16.9092 12.4931C16.8969 12.5173 16.8926 12.5448 16.8969 12.5716C16.9012 12.5985 16.9138 12.6233 16.933 12.6425Z" fill="#F08844"/>
<path d="M31.5638 17.6189C31.7772 17.284 31.89 16.8949 31.8889 16.4978C31.8878 16.1007 31.7727 15.7122 31.5574 15.3785C29.852 12.7411 27.6393 10.5007 25.1591 8.89904C22.4115 7.12529 19.3822 6.1875 16.3967 6.1875C14.8229 6.18966 13.2597 6.44627 11.7677 6.9474C11.7259 6.96129 11.6884 6.98564 11.6588 7.01812C11.6291 7.05061 11.6082 7.09015 11.5981 7.13299C11.588 7.17583 11.5891 7.22053 11.6012 7.26284C11.6133 7.30516 11.636 7.34368 11.6672 7.37473L14.7119 10.4195C14.7436 10.4512 14.7829 10.4741 14.8261 10.486C14.8692 10.4978 14.9148 10.4982 14.9581 10.4872C15.9902 10.2357 17.0696 10.2541 18.0925 10.5407C19.1154 10.8273 20.0472 11.3724 20.7984 12.1235C21.5495 12.8746 22.0946 13.8065 22.3812 14.8294C22.6678 15.8522 22.6862 16.9317 22.4347 17.9637C22.4237 18.007 22.4242 18.0524 22.4361 18.0955C22.448 18.1385 22.4708 18.1777 22.5024 18.2093L26.882 22.5921C26.9275 22.6378 26.9885 22.6647 27.053 22.6675C27.1174 22.6704 27.1806 22.649 27.23 22.6076C28.9158 21.1706 30.3767 19.4891 31.5638 17.6189ZM16.4174 22.6875C15.4807 22.6876 14.5562 22.475 13.7137 22.0657C12.8711 21.6565 12.1325 21.0613 11.5535 20.3251C10.9744 19.5888 10.5701 18.7307 10.371 17.8155C10.1718 16.9002 10.1831 15.9517 10.4039 15.0414C10.4148 14.9981 10.4143 14.9527 10.4025 14.9097C10.3906 14.8667 10.3678 14.8274 10.3362 14.7959L6.02816 10.4859C5.98247 10.4401 5.92128 10.4132 5.8567 10.4105C5.79212 10.4077 5.72886 10.4294 5.67946 10.4711C4.10745 11.8123 2.65017 13.4443 1.31792 15.3514C1.08472 15.6862 0.956287 16.0826 0.948942 16.4905C0.941597 16.8984 1.05567 17.2992 1.27667 17.6421C2.97888 20.306 5.169 22.5496 7.61112 24.1293C10.3626 25.9102 13.3184 26.8125 16.3967 26.8125C17.9865 26.8082 19.5659 26.5571 21.0786 26.0681C21.1207 26.0546 21.1587 26.0305 21.1888 25.9982C21.219 25.9658 21.2403 25.9262 21.2507 25.8832C21.2611 25.8402 21.2603 25.7953 21.2484 25.7527C21.2364 25.7101 21.2137 25.6714 21.1824 25.6401L18.1228 22.5812C18.0912 22.5496 18.052 22.5267 18.0089 22.5149C17.9659 22.503 17.9205 22.5025 17.8772 22.5135C17.3992 22.6293 16.9092 22.6877 16.4174 22.6875Z" fill="#F08844"/>
</svg>
