<svg width="32" height="32" viewBox="0 0 32 32" fill="none" xmlns="http://www.w3.org/2000/svg">
<g clip-path="url(#clip0_1031_198)">
<path d="M16 0C7.16666 0 0 7.00379 0 15.6364C0 24.2689 7.16666 31.2727 16 31.2727C24.8334 31.2727 32 24.2689 32 15.6364C32 7.00379 24.8334 0 16 0ZM15.5 24.7575C15.1703 24.7576 14.8481 24.662 14.5741 24.4831C14.2999 24.3041 14.0863 24.0497 13.9602 23.7521C13.8341 23.4544 13.801 23.127 13.8654 22.8111C13.9297 22.495 14.0884 22.2049 14.3215 21.977C14.5546 21.7492 14.8516 21.5942 15.1749 21.5313C15.4982 21.4684 15.8333 21.5007 16.1378 21.624C16.4424 21.7473 16.7026 21.9561 16.8858 22.2239C17.0689 22.4917 17.1666 22.8067 17.1666 23.1288C17.1666 23.5607 16.991 23.9751 16.6785 24.2805C16.366 24.586 15.942 24.7575 15.5 24.7575ZM18.2866 16.4507C16.9359 17.3368 16.75 18.1488 16.75 18.894C16.75 19.1963 16.6271 19.4864 16.4083 19.7002C16.1895 19.914 15.8928 20.0341 15.5833 20.0341C15.2739 20.0341 14.9772 19.914 14.7584 19.7002C14.5395 19.4864 14.4167 19.1963 14.4167 18.894C14.4167 17.1096 15.2566 15.691 16.985 14.5565C18.5917 13.5026 19.5 12.8348 19.5 11.3665C19.5 10.3681 18.9167 9.60985 17.7092 9.04873C17.425 8.9168 16.7925 8.78812 16.0142 8.79708C15.0375 8.8093 14.2792 9.03733 13.695 9.49665C12.5934 10.3632 12.5 11.3063 12.5 11.32C12.4926 11.4698 12.4551 11.6167 12.3896 11.7522C12.3242 11.8878 12.232 12.0094 12.1185 12.1102C12.0049 12.2109 11.8722 12.2889 11.7278 12.3395C11.5834 12.3901 11.4303 12.4125 11.2771 12.4052C11.1239 12.3981 10.9736 12.3614 10.8349 12.2974C10.6961 12.2335 10.5717 12.1434 10.4686 12.0325C10.3655 11.9215 10.2858 11.7917 10.234 11.6506C10.1821 11.5095 10.1593 11.3599 10.1667 11.2101C10.1758 11.0123 10.3167 9.22953 12.2308 7.72453C13.2234 6.94434 14.4858 6.53877 15.9808 6.52085C17.0391 6.50864 18.0334 6.68373 18.7075 6.99483C20.725 7.92731 21.8333 9.48199 21.8333 11.3665C21.8333 14.1216 19.9492 15.3586 18.2866 16.4507Z" fill="#F08844"/>
</g>
<defs>
<clipPath id="clip0_1031_198">
<rect width="32" height="32" fill="white"/>
</clipPath>
</defs>
</svg>
