<svg width="20" height="20" viewBox="0 0 31 31" fill="none" xmlns="http://www.w3.org/2000/svg">
<g clip-path="url(#clip0_667_196)">
<path d="M-1.03333 29.0409C-1.03333 29.5605 -0.830104 30.0588 -0.468367 30.4262C-0.10663 30.7936 0.383991 31 0.895564 31H30.1045C30.616 31 31.1066 30.7936 31.4684 30.4262C31.8301 30.0588 32.0333 29.5605 32.0333 29.0409V14.2083H-1.03333V29.0409ZM32.0333 8.33122C32.0333 7.81165 31.8301 7.31336 31.4684 6.94598C31.1066 6.57859 30.616 6.37219 30.1045 6.37219H12.5268L9.2201 4.1333H0.895564C0.383991 4.1333 -0.10663 4.3397 -0.468367 4.70709C-0.830104 5.07448 -1.03333 5.57276 -1.03333 6.09233V11.9694H32.0333V8.33122Z" fill="#F08844"/>
</g>
<defs>
<clipPath id="clip0_667_196">
<rect width="31" height="31" fill="white"/>
</clipPath>
</defs>
</svg>
