<svg width="25" height="25" viewBox="0 0 33 33" fill="none" xmlns="http://www.w3.org/2000/svg">
<path d="M16.5 0C7.39062 0 0 7.22266 0 16.125C0 25.0273 7.39062 32.25 16.5 32.25C25.6094 32.25 33 25.0273 33 16.125C33 7.22266 25.6094 0 16.5 0ZM15.9844 25.5312C15.6444 25.5313 15.3121 25.4327 15.0295 25.2482C14.7468 25.0636 14.5265 24.8013 14.3965 24.4944C14.2664 24.1874 14.2323 23.8497 14.2987 23.5239C14.365 23.198 14.5287 22.8988 14.769 22.6638C15.0094 22.4289 15.3157 22.269 15.6491 22.2042C15.9825 22.1393 16.3281 22.1726 16.6421 22.2997C16.9562 22.4269 17.2246 22.6422 17.4135 22.9184C17.6023 23.1946 17.7031 23.5194 17.7031 23.8516C17.7031 24.297 17.522 24.7243 17.1997 25.0393C16.8774 25.3543 16.4402 25.5312 15.9844 25.5312ZM18.8581 16.9648C17.4651 17.8786 17.2734 18.7159 17.2734 19.4844C17.2734 19.7962 17.1467 20.0953 16.9211 20.3158C16.6954 20.5363 16.3894 20.6602 16.0703 20.6602C15.7512 20.6602 15.4452 20.5363 15.2196 20.3158C14.9939 20.0953 14.8672 19.7962 14.8672 19.4844C14.8672 17.6443 15.7334 16.1813 17.5158 15.0114C19.1727 13.9246 20.1094 13.2359 20.1094 11.7217C20.1094 10.6921 19.5078 9.91016 18.2626 9.3315C17.9695 9.19545 17.3173 9.06275 16.5146 9.07199C15.5074 9.08459 14.7254 9.31975 14.123 9.79342C12.9869 10.687 12.8906 11.6596 12.8906 11.6738C12.883 11.8282 12.8443 11.9797 12.7768 12.1195C12.7093 12.2593 12.6143 12.3847 12.4972 12.4886C12.3801 12.5925 12.2432 12.6729 12.0943 12.7251C11.9454 12.7773 11.7875 12.8004 11.6295 12.7929C11.4715 12.7855 11.3165 12.7477 11.1735 12.6817C11.0304 12.6158 10.9021 12.5229 10.7957 12.4085C10.6894 12.294 10.6072 12.1602 10.5538 12.0147C10.5003 11.8692 10.4768 11.7149 10.4844 11.5604C10.4938 11.3564 10.6391 9.51795 12.613 7.96592C13.6366 7.16135 14.9385 6.74311 16.4802 6.72463C17.5716 6.71203 18.5969 6.8926 19.2921 7.21342C21.3727 8.17504 22.5156 9.7783 22.5156 11.7217C22.5156 14.5629 20.5726 15.8386 18.8581 16.9648Z" fill="#B5B2B2"/>
</svg>
