<svg width="35" height="35" viewBox="0 0 45 39" fill="none" xmlns="http://www.w3.org/2000/svg">
<path d="M38.4375 0H19.6875C17.9476 0.00175968 16.2795 0.656016 15.0492 1.81921C13.8189 2.98241 13.1269 4.55954 13.125 6.20455V17.7273H31.098L24.9246 11.8895C24.5878 11.5543 24.4028 11.108 24.4091 10.6458C24.4154 10.1835 24.6124 9.74184 24.9581 9.41495C25.3039 9.08806 25.771 8.90179 26.2599 8.89587C26.7489 8.88996 27.2209 9.06485 27.5754 9.38327L36.9504 18.2469C37.3018 18.5793 37.4991 19.03 37.4991 19.5C37.4991 19.97 37.3018 20.4207 36.9504 20.7531L27.5754 29.6167C27.2209 29.9351 26.7489 30.11 26.2599 30.1041C25.771 30.0982 25.3039 29.9119 24.9581 29.5851C24.6124 29.2582 24.4154 28.8165 24.4091 28.3542C24.4028 27.892 24.5878 27.4457 24.9246 27.1105L31.098 21.2727H13.125V32.7955C13.125 36.3464 17.0848 39 20.625 39H38.4375C40.1774 38.9982 41.8455 38.344 43.0758 37.1808C44.3061 36.0176 44.9981 34.4405 45 32.7955V6.20455C44.9981 4.55954 44.3061 2.98241 43.0758 1.81921C41.8455 0.656016 40.1774 0.00175968 38.4375 0ZM1.875 17.7273C1.37772 17.7273 0.900806 17.914 0.549175 18.2465C0.197544 18.5789 0 19.0298 0 19.5C0 19.9702 0.197544 20.4211 0.549175 20.7535C0.900806 21.086 1.37772 21.2727 1.875 21.2727H13.125V17.7273H1.875Z" fill="#FAEFE7"/>
</svg>
