<svg width="25" height="25" viewBox="0 0 46 39" fill="none" xmlns="http://www.w3.org/2000/svg">
<path d="M12.3848 19.5C12.3848 19.0298 12.5712 18.5789 12.903 18.2465C13.2348 17.914 13.6849 17.7273 14.1541 17.7273H30.0775V6.20455C30.0775 2.65909 26.341 0 23.0004 0H6.19242C4.55063 0.00175968 2.97658 0.656016 1.81566 1.81921C0.654734 2.98241 0.00175624 4.55954 0 6.20455V32.7955C0.00175624 34.4405 0.654734 36.0176 1.81566 37.1808C2.97658 38.344 4.55063 38.9982 6.19242 39H23.885C25.5268 38.9982 27.1009 38.344 28.2618 37.1808C29.4227 36.0176 30.0757 34.4405 30.0775 32.7955V21.2727H14.1541C13.6849 21.2727 13.2348 21.086 12.903 20.7535C12.5712 20.4211 12.3848 19.9702 12.3848 19.5ZM45.4822 18.2469L36.6359 9.38327C36.3014 9.06485 35.856 8.88996 35.3946 8.89587C34.9333 8.90179 34.4925 9.08806 34.1662 9.41495C33.84 9.74184 33.6541 10.1835 33.6482 10.6458C33.6423 11.108 33.8168 11.5543 34.1346 11.8895L39.9599 17.7273H30.0775V21.2727H39.9599L34.1346 27.1105C33.9634 27.2735 33.8265 27.4692 33.7319 27.686C33.6374 27.9028 33.5871 28.1364 33.5841 28.373C33.5811 28.6096 33.6254 28.8444 33.7143 29.0636C33.8033 29.2828 33.9352 29.4819 34.1022 29.6492C34.2691 29.8166 34.4679 29.9487 34.6866 30.0378C34.9054 30.127 35.1397 30.1713 35.3759 30.1683C35.612 30.1653 35.8451 30.1149 36.0615 30.0202C36.2779 29.9255 36.4732 29.7883 36.6359 29.6167L45.4822 20.7531C45.8138 20.4207 46 19.97 46 19.5C46 19.03 45.8138 18.5793 45.4822 18.2469Z" fill="#B5B2B2"/>
</svg>
