<svg width="35" height="35" viewBox="0 0 56 56" fill="none" xmlns="http://www.w3.org/2000/svg">
<path d="M28 28C30.4228 28 32.7912 27.2816 34.8057 25.9355C36.8202 24.5895 38.3904 22.6763 39.3175 20.4379C40.2447 18.1995 40.4873 15.7364 40.0146 13.3601C39.542 10.9839 38.3753 8.80114 36.6621 7.08795C34.9489 5.37475 32.7661 4.20805 30.3899 3.73539C28.0136 3.26272 25.5505 3.50531 23.3121 4.43248C21.0737 5.35965 19.1605 6.92977 17.8145 8.94427C16.4684 10.9588 15.75 13.3272 15.75 15.75C15.75 18.9989 17.0406 22.1147 19.3379 24.4121C21.6353 26.7094 24.7511 28 28 28ZM28 31.5C20.4072 31.5 5.25 36.19 5.25 45.5V52.5H50.75V45.5C50.75 36.19 35.5928 31.5 28 31.5Z" fill="#FAEFE7"/>
</svg>
