<svg width="50" height="50" viewBox="0 0 50 50" fill="none" xmlns="http://www.w3.org/2000/svg">
<path d="M46.6447 3.73666C46.6269 3.65029 46.5848 3.5708 46.5234 3.50749C46.462 3.44419 46.3838 3.3997 46.298 3.37924C40.5783 1.9808 27.3625 6.9642 20.2023 14.1214C18.9252 15.3882 17.761 16.7638 16.7228 18.2328C14.5148 18.0374 12.3068 18.2005 10.425 19.0208C5.11539 21.3578 3.56949 27.4554 3.13883 30.0785C3.1144 30.222 3.12361 30.3693 3.16574 30.5087C3.20788 30.6481 3.28178 30.7759 3.38163 30.8819C3.48149 30.9879 3.60458 31.0693 3.74122 31.1196C3.87786 31.17 4.02433 31.188 4.1691 31.1722L12.6955 30.2318C12.7015 30.8746 12.7403 31.5167 12.8117 32.1556C12.8546 32.5993 13.0515 33.0139 13.3683 33.3275L16.6701 36.6214C16.984 36.9377 17.3984 37.1346 17.842 37.1781C18.4773 37.2491 19.1158 37.2878 19.755 37.2943L18.8195 45.8099C18.8039 45.9546 18.822 46.101 18.8725 46.2376C18.9229 46.3741 19.0043 46.4971 19.1103 46.5969C19.2162 46.6967 19.3439 46.7706 19.4832 46.8128C19.6225 46.855 19.7697 46.8644 19.9132 46.8402C22.5314 46.4203 28.6398 44.8744 30.963 39.5648C31.7834 37.683 31.9513 35.4857 31.7619 33.2884C33.2343 32.2502 34.6136 31.0856 35.8839 29.808C43.0666 22.6615 48.0216 9.74057 46.6447 3.73666ZM28.7179 21.2826C28.0621 20.6271 27.6153 19.7919 27.4342 18.8825C27.2531 17.9732 27.3457 17.0305 27.7004 16.1738C28.0551 15.3171 28.6559 14.5848 29.4268 14.0696C30.1978 13.5544 31.1042 13.2794 32.0314 13.2794C32.9586 13.2794 33.865 13.5544 34.636 14.0696C35.4069 14.5848 36.0077 15.3171 36.3624 16.1738C36.7171 17.0305 36.8097 17.9732 36.6286 18.8825C36.4475 19.7919 36.0007 20.6271 35.3449 21.2826C34.91 21.7181 34.3935 22.0636 33.8249 22.2994C33.2564 22.5351 32.6469 22.6564 32.0314 22.6564C31.4159 22.6564 30.8065 22.5351 30.2379 22.2994C29.6693 22.0636 29.1528 21.7181 28.7179 21.2826Z" fill="#F7F7F7"/>
<path d="M16.4453 39.0068C15.9102 39.543 15.0518 39.752 14.0186 39.9307C11.6973 40.3262 9.64746 38.3203 10.0645 35.9736C10.2236 35.084 10.6943 33.8369 10.9873 33.5439C11.0513 33.4811 11.094 33.3998 11.1091 33.3114C11.1243 33.223 11.1112 33.132 11.0717 33.0515C11.0323 32.971 10.9684 32.9049 10.8893 32.8627C10.8102 32.8205 10.7197 32.8043 10.6309 32.8164C9.33277 32.9752 8.12513 33.5638 7.2002 34.4883C4.9043 36.7861 4.6875 45.3125 4.6875 45.3125C4.6875 45.3125 13.2187 45.0957 15.5146 42.7979C16.442 41.8736 17.0312 40.6642 17.1875 39.3643C17.2236 38.9561 16.7266 38.7129 16.4453 39.0068Z" fill="#F7F7F7"/>
</svg>
