<svg width="30" height="30" viewBox="0 0 46 46" fill="none" xmlns="http://www.w3.org/2000/svg">
<path d="M41.6875 23.5454C41.6754 23.7696 41.5843 23.9822 41.4304 24.1457C41.2765 24.3091 41.0696 24.4128 40.8466 24.4384L38.543 24.8113C38.4394 24.8283 38.344 24.8783 38.2712 24.9539C38.1983 25.0295 38.1518 25.1266 38.1387 25.2308C38.0947 25.5138 38.0488 25.8076 37.986 26.0861C37.9657 26.1874 37.9776 26.2925 38.0199 26.3868C38.0623 26.481 38.133 26.5596 38.2222 26.6117L40.2689 27.7482C40.4721 27.8518 40.6302 28.0265 40.713 28.2391C40.7958 28.4516 40.7976 28.6872 40.7181 28.9009L40.3632 29.8802C40.2854 30.0948 40.1312 30.273 39.9301 30.3809C39.729 30.4889 39.4952 30.5188 39.2734 30.4651L36.9779 30.0159C36.8753 29.9974 36.7694 30.0119 36.6755 30.0572C36.5815 30.1026 36.5044 30.1765 36.455 30.2684C36.3212 30.519 36.1756 30.7742 36.0238 31.0248C35.9686 31.1142 35.9428 31.2185 35.9499 31.3232C35.957 31.4279 35.9966 31.5278 36.0633 31.6088L37.5906 33.3725C37.7457 33.5393 37.8347 33.7568 37.8412 33.9844C37.8476 34.2121 37.771 34.4343 37.6257 34.6096L36.959 35.4101C36.814 35.5858 36.609 35.7015 36.3836 35.7347C36.1582 35.7679 35.9285 35.7162 35.739 35.5898L33.7292 34.3832C33.6401 34.3298 33.5361 34.3065 33.4328 34.3167C33.3294 34.3269 33.232 34.37 33.1551 34.4398C32.9331 34.6348 32.7103 34.8225 32.4929 34.9959C32.4112 35.0604 32.3521 35.1493 32.3244 35.2496C32.2966 35.35 32.3015 35.4565 32.3384 35.5539L33.1703 37.7461C33.2609 37.9552 33.2715 38.1904 33.2002 38.4069C33.1288 38.6234 32.9804 38.8061 32.7831 38.9203L31.8775 39.4459C31.68 39.5598 31.4474 39.5968 31.2242 39.5499C31.0011 39.503 30.8031 39.3754 30.6682 39.1916L29.1992 37.3498C29.1466 37.2694 29.0675 37.2099 28.9756 37.1816C28.8837 37.1534 28.7848 37.1582 28.6961 37.1953C28.6404 37.2178 28.1777 37.4073 27.8174 37.5277C27.7186 37.5599 27.6327 37.6229 27.5722 37.7075C27.5118 37.792 27.48 37.8937 27.4814 37.9976L27.5165 40.3398C27.529 40.5686 27.4577 40.794 27.316 40.9739C27.1742 41.1538 26.9718 41.2759 26.7465 41.3173L25.7178 41.497C25.4937 41.5358 25.2631 41.4918 25.0689 41.3733C24.8747 41.2548 24.7302 41.0699 24.6621 40.8529L23.8985 38.6238C23.8643 38.5246 23.7989 38.439 23.7121 38.3799C23.6253 38.3208 23.5218 38.2913 23.4169 38.2959H22.5409C22.437 38.2942 22.3352 38.3251 22.2498 38.3842C22.1644 38.4433 22.0997 38.5278 22.0647 38.6256L21.3047 40.8421C21.2378 41.0607 21.0935 41.2474 20.8989 41.3673C20.7042 41.4872 20.4725 41.5321 20.2472 41.4934L19.2176 41.3138C18.9936 41.2729 18.7921 41.152 18.6504 40.9737C18.5088 40.7954 18.4367 40.5718 18.4476 40.3443L18.4836 37.994C18.4843 37.8885 18.4509 37.7856 18.3884 37.7006C18.3259 37.6157 18.2377 37.5531 18.1368 37.5223C17.9319 37.4424 17.4845 37.2726 17.2824 37.1962C17.1027 37.1315 16.9059 37.2025 16.7433 37.3849L15.2824 39.1818C15.1486 39.3655 14.9518 39.4934 14.7295 39.5413C14.5073 39.5892 14.2753 39.5537 14.0776 39.4414L13.1738 38.9176C12.9744 38.8032 12.8244 38.6189 12.7527 38.4005C12.6811 38.182 12.6928 37.9447 12.7857 37.7344L13.6167 35.5476C13.653 35.45 13.6578 35.3436 13.6304 35.2432C13.603 35.1428 13.5448 35.0535 13.464 34.9879C13.2457 34.8082 13.022 34.6285 12.7992 34.429C12.7226 34.3598 12.626 34.3169 12.5233 34.3065C12.4207 34.2962 12.3174 34.319 12.2286 34.3715L10.2422 35.6015C10.0515 35.7258 9.822 35.7761 9.59682 35.743C9.37164 35.7099 9.1663 35.5957 9.01943 35.4218L8.35459 34.6222C8.20704 34.4481 8.12886 34.2258 8.13499 33.9977C8.14112 33.7696 8.23114 33.5518 8.38783 33.3859L9.92326 31.625C9.99136 31.5456 10.0321 31.4463 10.0393 31.3419C10.0466 31.2376 10.0201 31.1336 9.96369 31.0455C9.81005 30.8011 9.66361 30.5442 9.53064 30.2872C9.4809 30.1948 9.40316 30.1205 9.30858 30.075C9.21399 30.0295 9.10742 30.0151 9.00416 30.0339L6.71224 30.4768C6.49034 30.5303 6.25649 30.5003 6.05531 30.3924C5.85414 30.2846 5.69972 30.1064 5.62154 29.8919L5.26216 28.9144C5.18253 28.7004 5.18428 28.4645 5.2671 28.2517C5.34992 28.0389 5.50802 27.8639 5.71138 27.7599L7.75802 26.6234C7.85006 26.5726 7.92307 26.4932 7.96602 26.3973C8.00897 26.3013 8.01953 26.194 7.99611 26.0915L7.97544 25.9801C7.92783 25.7286 7.8856 25.4905 7.84337 25.2371C7.82909 25.1342 7.78264 25.0385 7.71067 24.9637C7.6387 24.8888 7.54489 24.8386 7.44267 24.8202L5.13369 24.4474C4.90813 24.4195 4.70043 24.3105 4.54934 24.1407C4.39824 23.9709 4.31407 23.752 4.31252 23.5247V22.4843C4.3112 22.256 4.39464 22.0354 4.54667 21.8651C4.6987 21.6948 4.90852 21.587 5.13548 21.5625L7.44267 21.1905C7.54635 21.1737 7.64177 21.1237 7.71466 21.0481C7.78754 20.9724 7.83396 20.8752 7.84697 20.771C7.89099 20.4871 7.93681 20.1942 7.9997 19.9157C8.01997 19.8144 8.00809 19.7093 7.96573 19.615C7.92337 19.5208 7.85264 19.4422 7.76341 19.3901L5.71767 18.2518C5.51445 18.1482 5.35639 17.9735 5.27356 17.761C5.19073 17.5484 5.18892 17.3129 5.26845 17.0991L5.62783 16.1198C5.70583 15.9054 5.86008 15.7272 6.0611 15.6193C6.26213 15.5114 6.49585 15.4814 6.71763 15.5349L9.01314 15.9796C9.11579 15.9981 9.22165 15.9836 9.31558 15.9383C9.4095 15.8929 9.48667 15.819 9.53603 15.7272C9.6708 15.4756 9.81634 15.2204 9.96728 14.9707C10.0227 14.8815 10.0487 14.7771 10.0416 14.6723C10.0345 14.5675 9.99468 14.4676 9.92775 14.3867L8.40041 12.6222C8.24367 12.4569 8.15263 12.2401 8.14436 12.0125C8.13609 11.7849 8.21116 11.5621 8.35548 11.3859L9.02123 10.5854C9.16625 10.4097 9.37131 10.2941 9.5967 10.2609C9.82209 10.2277 10.0518 10.2793 10.2413 10.4057L12.2511 11.6123C12.3402 11.6657 12.4441 11.689 12.5475 11.6788C12.6509 11.6686 12.7482 11.6255 12.8252 11.5557C13.048 11.3607 13.2744 11.173 13.4874 10.9996C13.5691 10.9351 13.6281 10.8462 13.6559 10.7459C13.6837 10.6456 13.6788 10.539 13.6419 10.4416L12.8099 8.24946C12.7193 8.04029 12.7087 7.80513 12.7801 7.58865C12.8515 7.37217 12.9999 7.18945 13.1972 7.0752L14.1055 6.55051C14.3028 6.4366 14.5351 6.39946 14.7581 6.4462C14.9811 6.49295 15.179 6.6203 15.3139 6.80387L16.8008 8.63219C16.9257 8.78762 17.1242 8.8568 17.2716 8.7975C17.5833 8.66813 17.7927 8.59536 18.1637 8.47137C18.2626 8.43908 18.3485 8.3761 18.4091 8.2916C18.4697 8.20709 18.5018 8.10546 18.5006 8.00149L18.4647 5.66106C18.4526 5.43244 18.524 5.20721 18.6657 5.02736C18.8073 4.84751 19.0096 4.72532 19.2347 4.68356L20.2634 4.50387C20.4875 4.46495 20.7182 4.50883 20.9124 4.62734C21.1066 4.74585 21.2511 4.93091 21.319 5.14805L22.0827 7.37348C22.1176 7.47227 22.1832 7.55734 22.2698 7.61632C22.3564 7.6753 22.4596 7.70511 22.5643 7.70141H23.4402C23.5442 7.70327 23.646 7.67244 23.7315 7.61328C23.8169 7.55412 23.8816 7.4696 23.9164 7.37168L24.6774 5.15524C24.7363 4.96283 24.8554 4.79436 25.0171 4.67455C25.1788 4.55474 25.3746 4.48989 25.5758 4.4895C25.6295 4.48938 25.683 4.49419 25.7358 4.50387L26.7663 4.68356C26.9901 4.72464 27.1914 4.84554 27.3329 5.02382C27.4743 5.20211 27.5462 5.42566 27.5353 5.65297L27.4994 8.00328C27.4987 8.10683 27.531 8.20792 27.5915 8.29191C27.6521 8.3759 27.7378 8.43844 27.8363 8.47047C28.1813 8.58637 28.423 8.67981 28.6368 8.76157L28.6907 8.78313C28.9656 8.87836 29.0977 8.77055 29.1822 8.66544L30.687 6.81196C30.8219 6.62862 31.0197 6.50142 31.2424 6.45468C31.4652 6.40794 31.6973 6.44494 31.8945 6.5586L32.7993 7.08239C32.9972 7.1967 33.146 7.37988 33.2175 7.59697C33.2889 7.81407 33.2779 8.04986 33.1865 8.25934L32.3563 10.4461C32.3197 10.5436 32.3147 10.6501 32.3419 10.7505C32.3692 10.851 32.4273 10.9403 32.5082 11.0059C32.7265 11.1856 32.9502 11.3652 33.173 11.5647C33.25 11.6341 33.3473 11.677 33.4504 11.687C33.5536 11.697 33.6573 11.6737 33.7462 11.6204L35.7578 10.4165C35.9485 10.2922 36.178 10.2419 36.4032 10.275C36.6284 10.3081 36.8337 10.4223 36.9806 10.5962L37.6454 11.3958C37.7929 11.5697 37.8711 11.7919 37.8649 12.0198C37.8588 12.2478 37.7688 12.4654 37.6122 12.6311L36.0795 14.3984C36.0114 14.4778 35.9707 14.577 35.9634 14.6814C35.9561 14.7858 35.9826 14.8897 36.039 14.9779C36.1927 15.2213 36.3391 15.4783 36.4721 15.7361C36.5221 15.8283 36.5999 15.9023 36.6944 15.9478C36.7889 15.9933 36.8953 16.0079 36.9986 15.9895L39.2878 15.543C39.5097 15.4894 39.7435 15.5195 39.9447 15.6273C40.1459 15.7352 40.3003 15.9134 40.3785 16.1279L40.7334 17.1054C40.813 17.3193 40.8112 17.555 40.7284 17.7677C40.6455 17.9803 40.4874 18.1552 40.2842 18.259L38.2357 19.3973C38.145 19.4486 38.0732 19.5277 38.0309 19.6231C37.9887 19.7184 37.9783 19.8248 38.0012 19.9265L38.0219 20.0388C38.0695 20.2903 38.1117 20.5275 38.154 20.7809C38.1683 20.8837 38.2147 20.9794 38.2867 21.0543C38.3586 21.1292 38.4524 21.1794 38.5547 21.1977L40.8636 21.5697C41.0898 21.5972 41.2981 21.7061 41.4498 21.8761C41.6014 22.0461 41.6859 22.2655 41.6875 22.4933V23.5454ZM15.4163 13.5422C13.9987 14.6829 12.8556 16.1277 12.0717 17.7698C11.2877 19.4119 10.8829 21.2092 10.8873 23.0288C10.8916 24.8484 11.3049 26.6437 12.0966 28.282C12.8883 29.9204 14.0382 31.3598 15.4612 32.4938L20.8519 23.0054L15.4163 13.5422ZM23 10.8612C21.51 10.8598 20.0327 11.1355 18.6435 11.6743L24.0781 21.1322H34.969C34.0697 15.3229 29.0456 10.8612 23 10.8612ZM24.0835 24.8679L18.6974 34.3464C20.0711 34.8713 21.5294 35.1399 23 35.1388C29.0456 35.1388 34.0697 30.6772 34.969 24.8679H24.0835Z" fill="#B5B2B2"/>
</svg>
