<svg width="51" height="51" viewBox="0 0 51 51" fill="none" xmlns="http://www.w3.org/2000/svg">
<path d="M34 31.875C36.7752 31.875 39.1382 33.6494 40.0137 36.125H42.5C43.0636 36.125 43.6041 36.3489 44.0026 36.7474C44.4011 37.1459 44.625 37.6864 44.625 38.25C44.625 38.8136 44.4011 39.3541 44.0026 39.7526C43.6041 40.1511 43.0636 40.375 42.5 40.375H40.0137C39.5747 41.6193 38.7606 42.6967 37.6835 43.4588C36.6064 44.2209 35.3194 44.6302 34 44.6302C32.6806 44.6302 31.3936 44.2209 30.3165 43.4588C29.2394 42.6967 28.4253 41.6193 27.9862 40.375H8.5C7.93641 40.375 7.39591 40.1511 6.9974 39.7526C6.59888 39.3541 6.375 38.8136 6.375 38.25C6.375 37.6864 6.59888 37.1459 6.9974 36.7474C7.39591 36.3489 7.93641 36.125 8.5 36.125H27.9862C28.4259 34.8815 29.2403 33.805 30.3174 33.0439C31.3945 32.2827 32.6811 31.8743 34 31.875ZM17 19.125C18.2516 19.1248 19.4756 19.4931 20.5193 20.1839C21.563 20.8746 22.3803 21.8574 22.8692 23.0095L23.0116 23.375H42.5C43.0416 23.3756 43.5626 23.583 43.9564 23.9548C44.3502 24.3266 44.5872 24.8348 44.619 25.3755C44.6507 25.9162 44.4748 26.4486 44.1272 26.8639C43.7796 27.2792 43.2865 27.5462 42.7486 27.6101L42.5 27.625H23.0138C22.5853 28.8369 21.8007 29.891 20.7628 30.6491C19.7249 31.4073 18.4821 31.8341 17.1973 31.8736C15.9126 31.9132 14.6459 31.5635 13.5633 30.8706C12.4807 30.1776 11.6328 29.1737 11.1307 27.9905L10.9862 27.625H8.5C7.95838 27.6244 7.43743 27.417 7.04359 27.0452C6.64975 26.6734 6.41275 26.1652 6.38101 25.6245C6.34927 25.0838 6.52518 24.5514 6.87281 24.1361C7.22044 23.7208 7.71355 23.4538 8.25137 23.3899L8.5 23.375H10.9862C11.4259 22.1315 12.2403 21.055 13.3174 20.2939C14.3945 19.5327 15.6811 19.1243 17 19.125ZM34 6.375C36.7752 6.375 39.1382 8.14938 40.0137 10.625H42.5C43.0636 10.625 43.6041 10.8489 44.0026 11.2474C44.4011 11.6459 44.625 12.1864 44.625 12.75C44.625 13.3136 44.4011 13.8541 44.0026 14.2526C43.6041 14.6511 43.0636 14.875 42.5 14.875H40.0137C39.5747 16.1193 38.7606 17.1967 37.6835 17.9588C36.6064 18.7209 35.3194 19.1302 34 19.1302C32.6806 19.1302 31.3936 18.7209 30.3165 17.9588C29.2394 17.1967 28.4253 16.1193 27.9862 14.875H8.5C7.93641 14.875 7.39591 14.6511 6.9974 14.2526C6.59888 13.8541 6.375 13.3136 6.375 12.75C6.375 12.1864 6.59888 11.6459 6.9974 11.2474C7.39591 10.8489 7.93641 10.625 8.5 10.625H27.9862C28.4259 9.38154 29.2403 8.30505 30.3174 7.54387C31.3945 6.78269 32.6811 6.37431 34 6.375Z" fill="#F7F7F7"/>
</svg>
