<svg width="30" height="36" viewBox="0 0 30 36" fill="none" xmlns="http://www.w3.org/2000/svg">
    <path d="M28.75 5.14286H21.25V3.21429C21.25 2.3618 20.9208 1.54424 20.3347 0.941442C19.7487 0.338647 18.9538 0 18.125 0H11.875C11.0462 0 10.2513 0.338647 9.66529 0.941442C9.07924 1.54424 8.75 2.3618 8.75 3.21429V5.14286H1.25C0.918479 5.14286 0.600537 5.27832 0.366117 5.51943C0.131696 5.76055 0 6.08758 0 6.42857C0 6.76956 0.131696 7.09659 0.366117 7.33771C0.600537 7.57883 0.918479 7.71429 1.25 7.71429H2.57812L4.0625 32.2168C4.17344 34.3744 5.78125 36 7.8125 36H22.1875C24.2289 36 25.8047 34.4105 25.9375 32.2232L27.4219 7.71429H28.75C29.0815 7.71429 29.3995 7.57883 29.6339 7.33771C29.8683 7.09659 30 6.76956 30 6.42857C30 6.08758 29.8683 5.76055 29.6339 5.51943C29.3995 5.27832 29.0815 5.14286 28.75 5.14286ZM10.0445 30.8571H10C9.67605 30.8574 9.36468 30.7282 9.1315 30.4969C8.89831 30.2656 8.76154 29.9502 8.75 29.6172L8.125 11.6172C8.11319 11.2762 8.23356 10.9444 8.45963 10.6947C8.6857 10.445 8.99895 10.2979 9.33047 10.2857C9.66199 10.2736 9.98462 10.3974 10.2274 10.6299C10.4702 10.8624 10.6132 11.1846 10.625 11.5256L11.25 29.5256C11.256 29.6945 11.2295 29.8629 11.1721 30.0213C11.1147 30.1796 11.0276 30.3247 10.9156 30.4484C10.8037 30.5721 10.6691 30.6718 10.5196 30.742C10.3702 30.8121 10.2087 30.8512 10.0445 30.8571ZM16.25 29.5714C16.25 29.9124 16.1183 30.2394 15.8839 30.4806C15.6495 30.7217 15.3315 30.8571 15 30.8571C14.6685 30.8571 14.3505 30.7217 14.1161 30.4806C13.8817 30.2394 13.75 29.9124 13.75 29.5714V11.5714C13.75 11.2304 13.8817 10.9034 14.1161 10.6623C14.3505 10.4212 14.6685 10.2857 15 10.2857C15.3315 10.2857 15.6495 10.4212 15.8839 10.6623C16.1183 10.9034 16.25 11.2304 16.25 11.5714V29.5714ZM18.75 5.14286H11.25V3.21429C11.2491 3.1296 11.2646 3.04557 11.2957 2.96713C11.3267 2.8887 11.3727 2.81745 11.431 2.75756C11.4892 2.69767 11.5585 2.65035 11.6347 2.61839C11.711 2.58643 11.7927 2.57046 11.875 2.57143H18.125C18.2073 2.57046 18.289 2.58643 18.3653 2.61839C18.4415 2.65035 18.5108 2.69767 18.569 2.75756C18.6273 2.81745 18.6733 2.8887 18.7043 2.96713C18.7354 3.04557 18.7509 3.1296 18.75 3.21429V5.14286ZM21.25 29.6172C21.2385 29.9502 21.1017 30.2656 20.8685 30.4969C20.6353 30.7282 20.3239 30.8574 20 30.8571H19.9547C19.7906 30.8511 19.6292 30.8119 19.4798 30.7417C19.3305 30.6716 19.196 30.5718 19.0841 30.4481C18.9722 30.3245 18.8851 30.1794 18.8278 30.0211C18.7705 29.8628 18.744 29.6944 18.75 29.5256L19.375 11.5256C19.3808 11.3568 19.419 11.1908 19.4872 11.0371C19.5554 10.8834 19.6524 10.745 19.7726 10.6299C19.8928 10.5148 20.0339 10.4251 20.1878 10.3661C20.3417 10.307 20.5054 10.2797 20.6695 10.2857C20.8337 10.2917 20.9951 10.3309 21.1445 10.4011C21.2939 10.4713 21.4284 10.571 21.5404 10.6947C21.6523 10.8183 21.7395 10.9634 21.7969 11.1217C21.8543 11.28 21.8808 11.4484 21.875 11.6172L21.25 29.6172Z" fill="#F08844"/>
</svg>
